<svg width="24" height="24" viewBox="0 0 24 24" fill="none" xmlns="http://www.w3.org/2000/svg">
<path d="M4.06006 14.44C6.60606 18.681 10.8451 20.934 16.7171 21.191L16.6691 21.216C15.4611 21.836 13.9131 22.185 11.9991 22.185C6.38106 22.185 3.91806 19.168 4.05906 14.44H4.06006ZM20.0001 14.219C20.2481 16.632 19.6581 18.766 18.1061 20.216H17.9941C16.3641 20.223 14.8621 20.084 13.4881 19.798C16.2781 18.707 18.4521 16.836 19.9981 14.198L20.0001 14.218V14.219ZM12.4251 2C12.8231 2.011 13.2221 2.054 13.6111 2.126C16.6741 2.693 19.0361 5.146 19.8091 7.429C20.2986 7.50045 20.7578 7.70957 21.1331 8.032C21.5291 8.381 22.0001 9.042 22.0001 10.213C22.0001 11.161 21.5971 11.743 21.2581 12.063C20.8501 12.45 20.3541 12.641 19.9351 12.735L19.7911 12.763C19.7295 12.7823 19.6728 12.8143 19.6245 12.857C19.5763 12.8998 19.5376 12.9523 19.5111 13.011C17.8501 16.226 15.3071 18.312 11.8591 19.293L11.7291 19.329C8.48206 18.255 6.07906 16.206 4.49906 13.181C4.42206 13.033 4.31406 12.936 4.18706 12.909C3.28706 12.759 2.33106 12.203 2.07506 10.943C1.83306 9.754 2.22206 8.967 2.59106 8.515C3.04506 7.96 3.66306 7.66 4.23106 7.533C4.64906 6.485 5.75506 4.239 7.86706 3.138C9.26006 2.411 10.6571 2.031 12.0231 2.001L12.4251 2ZM12.3011 3.77C11.1351 3.754 9.91806 4.065 8.68506 4.708C6.60506 5.792 5.73506 8.573 5.72506 8.601C5.6695 8.78244 5.55728 8.94131 5.40486 9.05432C5.25243 9.16734 5.06781 9.22855 4.87806 9.229C4.59806 9.229 4.19106 9.357 3.96206 9.636C3.77606 9.864 3.72606 10.176 3.81006 10.59C3.94106 11.237 4.66206 11.2 4.88006 11.173C5.11339 11.1437 5.34884 11.2078 5.53518 11.3513C5.72151 11.4947 5.84367 11.7059 5.87506 11.939C6.19906 14.482 8.62906 15.682 8.65406 15.694C8.69104 15.7116 8.72678 15.7316 8.76106 15.754C10.2321 16.737 12.1531 16.662 12.1731 16.661L12.2061 16.66H12.2661C12.4971 16.654 14.1341 16.577 15.7631 15.341C17.8511 13.758 18.2121 11.816 18.2151 11.796C18.2489 11.5796 18.3621 11.3835 18.5325 11.2458C18.7029 11.1081 18.9183 11.0387 19.1371 11.051C19.2891 11.058 19.7911 11.018 20.0431 10.774C20.1231 10.698 20.2291 10.556 20.2291 10.214C20.2291 9.808 20.1411 9.522 19.9691 9.366C19.7011 9.124 19.2301 9.163 19.2261 9.163C19.0058 9.18605 18.7849 9.12663 18.6059 8.99623C18.4269 8.86583 18.3026 8.67371 18.2571 8.457C18.0071 7.202 16.7651 5.291 14.7571 4.343C14.7851 4.638 14.7751 4.973 14.6971 5.353C14.3771 6.915 13.1571 7.426 12.1941 7.426C12.0341 7.426 11.8811 7.411 11.7401 7.386C11.514 7.33941 11.3151 7.20646 11.1856 7.01544C11.0561 6.82442 11.0062 6.59041 11.0466 6.36318C11.087 6.13596 11.2144 5.93346 11.4018 5.79877C11.5892 5.66409 11.8218 5.60784 12.0501 5.642C12.5521 5.718 12.8591 5.502 12.9621 4.998C13.0361 4.633 13.0081 4.348 12.8771 4.152C12.7301 3.93 12.4501 3.813 12.3011 3.771V3.77ZM11.9931 12.648C13.0311 12.651 13.8501 12.712 13.8501 13.768C13.8501 14.873 12.9801 15.361 11.8751 15.361C10.7711 15.361 9.85006 14.873 9.85006 13.769C9.85006 12.712 10.6701 12.651 11.7071 12.648H11.9931ZM9.19306 9.923C9.48599 9.923 9.76692 10.0394 9.97406 10.2465C10.1812 10.4536 10.2976 10.7346 10.2976 11.0275C10.2976 11.3204 10.1812 11.6014 9.97406 11.8085C9.76692 12.0156 9.48599 12.132 9.19306 12.132C8.90013 12.132 8.61919 12.0156 8.41206 11.8085C8.20492 11.6014 8.08856 11.3204 8.08856 11.0275C8.08856 10.7346 8.20492 10.4536 8.41206 10.2465C8.61919 10.0394 8.90013 9.923 9.19306 9.923ZM14.5691 9.923C14.862 9.923 15.1429 10.0394 15.3501 10.2465C15.5572 10.4536 15.6736 10.7346 15.6736 11.0275C15.6736 11.3204 15.5572 11.6014 15.3501 11.8085C15.1429 12.0156 14.862 12.132 14.5691 12.132C14.2761 12.132 13.9952 12.0156 13.7881 11.8085C13.5809 11.6014 13.4646 11.3204 13.4646 11.0275C13.4646 10.7346 13.5809 10.4536 13.7881 10.2465C13.9952 10.0394 14.2761 9.923 14.5691 9.923Z" fill="#616C81"/>
</svg>
