<svg width="24" height="24" viewBox="0 0 24 24" fill="none" xmlns="http://www.w3.org/2000/svg">
<path d="M8.87378 10.5391C9.15014 10.5391 9.41517 10.6489 9.61059 10.8443C9.806 11.0397 9.91578 11.3047 9.91578 11.5811C9.91578 11.8574 9.806 12.1225 9.61059 12.3179C9.41517 12.5133 9.15014 12.6231 8.87378 12.6231C8.59743 12.6231 8.33239 12.5133 8.13698 12.3179C7.94156 12.1225 7.83178 11.8574 7.83178 11.5811C7.83178 11.3047 7.94156 11.0397 8.13698 10.8443C8.33239 10.6489 8.59743 10.5391 8.87378 10.5391ZM15.1238 10.5391C15.4001 10.5391 15.6652 10.6489 15.8606 10.8443C16.056 11.0397 16.1658 11.3047 16.1658 11.5811C16.1658 11.8574 16.056 12.1225 15.8606 12.3179C15.6652 12.5133 15.4001 12.6231 15.1238 12.6231C14.8474 12.6231 14.5824 12.5133 14.387 12.3179C14.1916 12.1225 14.0818 11.8574 14.0818 11.5811C14.0818 11.3047 14.1916 11.0397 14.387 10.8443C14.5824 10.6489 14.8474 10.5391 15.1238 10.5391ZM19.0818 14.4961C19.4133 14.4938 19.7303 14.36 19.9632 14.124C20.196 13.8879 20.3255 13.5691 20.3233 13.2376C20.321 12.9061 20.1872 12.589 19.9512 12.3562C19.7151 12.1234 19.3963 11.9938 19.0648 11.9961H19.0608C18.8429 11.9932 18.635 11.904 18.4827 11.748C18.3305 11.592 18.2464 11.382 18.2488 11.1641V9.91408C18.2478 8.81487 17.9566 7.73541 17.4045 6.7849C16.8524 5.83439 16.0591 5.04655 15.1048 4.50108C15.0649 4.4801 15.0195 4.47206 14.9748 4.47808C14.9202 4.48625 14.871 4.5156 14.8379 4.55977C14.8047 4.60394 14.7903 4.65937 14.7978 4.71408C14.8812 5.14277 14.8775 5.58387 14.7868 6.01108C14.6397 6.63786 14.2883 7.19789 13.7879 7.60291C13.2874 8.00793 12.6664 8.23491 12.0228 8.24808C11.5583 8.22456 11.1068 8.08618 10.7089 7.84534C10.311 7.6045 9.97905 7.26872 9.74278 6.86808C9.64627 6.66928 9.6326 6.44029 9.70479 6.23142C9.77697 6.02255 9.92911 5.85087 10.1278 5.75408C10.3267 5.65791 10.5557 5.64453 10.7645 5.71688C10.9734 5.78924 11.145 5.94142 11.2418 6.14008C11.5748 6.57608 12.1848 6.68608 12.6488 6.39508C12.6564 6.39022 12.6638 6.38488 12.6708 6.37908C12.8173 6.26657 12.9401 6.12628 13.0324 5.96623C13.1246 5.80619 13.1843 5.62953 13.2082 5.44637C13.2321 5.26321 13.2196 5.07714 13.1715 4.89881C13.1234 4.72047 13.0405 4.55338 12.9278 4.40708C12.81 4.22261 12.6567 4.06341 12.4767 3.93877C12.2968 3.81413 12.0939 3.72653 11.8798 3.68108C11.8736 3.67877 11.8676 3.6761 11.8618 3.67308C10.2294 3.70836 8.67573 4.38121 7.53324 5.54763C6.39075 6.71405 5.75023 8.28135 5.74878 9.91408V11.1741C5.7497 11.2822 5.72933 11.3894 5.68882 11.4896C5.64831 11.5898 5.58846 11.681 5.51269 11.7581C5.43691 11.8352 5.3467 11.8966 5.2472 11.9388C5.1477 11.981 5.04086 12.0032 4.93278 12.0041C4.60139 12.0018 4.28268 12.1313 4.04676 12.364C3.81084 12.5968 3.67704 12.9137 3.67478 13.2451C3.67253 13.5765 3.80201 13.8952 4.03474 14.1311C4.26747 14.367 4.58439 14.5008 4.91578 14.5031H5.22678C5.40506 14.5029 5.5787 14.5599 5.72216 14.6658C5.86562 14.7716 5.97135 14.9207 6.02378 15.0911C7.25878 19.1011 12.1738 21.1121 16.4408 17.9231C17.272 17.2293 17.8111 16.2477 17.9508 15.1741C17.9871 14.9834 18.0887 14.8114 18.2382 14.6877C18.3877 14.5639 18.5757 14.4961 18.7698 14.4961H19.0818ZM19.9158 10.3071C19.9163 10.3491 19.9298 10.39 19.9545 10.4241C19.9792 10.4581 20.0139 10.4836 20.0538 10.4971C20.5582 10.6752 21.004 10.9887 21.3423 11.4032C21.6805 11.8176 21.8983 12.3172 21.9718 12.8471C22.0241 13.2266 22.0011 13.6127 21.9042 13.9834C21.8072 14.354 21.6382 14.7019 21.4068 15.0073C21.1754 15.3126 20.8861 15.5693 20.5555 15.7629C20.2248 15.9564 19.8593 16.0828 19.4798 16.1351C19.4453 16.1393 19.4126 16.1526 19.385 16.1737C19.3574 16.1948 19.3359 16.2229 19.3228 16.2551C18.9247 17.225 18.3379 18.1061 17.5965 18.8474C16.855 19.5886 15.9738 20.1752 15.0038 20.5731C13.0613 21.37 10.8818 21.3628 8.94467 20.5531C7.00751 19.7433 5.47126 18.1973 4.67378 16.2551C4.66076 16.223 4.63944 16.195 4.61203 16.174C4.58462 16.1529 4.55209 16.1395 4.51778 16.1351C4.00282 16.064 3.51622 15.8566 3.10833 15.5343C2.70044 15.212 2.38608 14.7866 2.19778 14.3021C2.05914 13.9451 1.99218 13.5643 2.00073 13.1814C2.00927 12.7985 2.09315 12.4211 2.24758 12.0706C2.402 11.7202 2.62395 11.4036 2.90075 11.1389C3.17754 10.8742 3.50376 10.6667 3.86078 10.5281C3.92469 10.492 3.97845 10.4403 4.01708 10.3779C4.05572 10.3155 4.07797 10.2444 4.08178 10.1711V9.91408C4.08328 8.82921 4.3075 7.75619 4.74056 6.7615C5.17362 5.7668 5.8063 4.87162 6.5994 4.13139C7.39251 3.39116 8.32915 2.82165 9.35131 2.45813C10.3735 2.09462 11.4594 1.94484 12.5418 2.01808C14.5746 2.20154 16.4633 3.14538 17.8303 4.66095C19.1974 6.17653 19.9422 8.1522 19.9158 10.1931V10.3071ZM13.5328 14.7821C13.5549 14.7601 13.5783 14.7394 13.6028 14.7201C13.6889 14.6524 13.7874 14.6024 13.8929 14.5729C13.9983 14.5434 14.1086 14.535 14.2173 14.5482C14.326 14.5614 14.431 14.5959 14.5263 14.6498C14.6216 14.7036 14.7054 14.7758 14.7728 14.8621C14.8405 14.9482 14.8905 15.0467 14.92 15.1522C14.9495 15.2576 14.9579 15.3679 14.9447 15.4766C14.9315 15.5853 14.897 15.6903 14.8431 15.7856C14.7892 15.8809 14.7171 15.9647 14.6308 16.0321C13.8941 16.6529 12.9617 16.9934 11.9983 16.9934C11.0349 16.9934 10.1025 16.6529 9.36578 16.0321C9.21995 15.8883 9.1322 15.6958 9.11929 15.4914C9.10638 15.2871 9.16921 15.0851 9.29578 14.9241C9.43202 14.7503 9.63168 14.6377 9.85089 14.6111C10.0701 14.5845 10.2909 14.646 10.4648 14.7821C10.9045 15.1207 11.4438 15.3043 11.9988 15.3043C12.5537 15.3043 13.0931 15.1207 13.5328 14.7821Z" fill="#616C81"/>
</svg>
